<svg width="24" height="24" viewBox="0 0 24 24" fill="none" xmlns="http://www.w3.org/2000/svg">
<path d="M10.4056 2.81738C11.1669 2.50203 12.0046 2.41932 12.8128 2.58008C13.5199 2.72074 14.1765 3.04231 14.72 3.51074L14.9466 3.7207C15.4562 4.23044 15.8233 4.86245 16.015 5.55371L16.0862 5.85352C16.2269 6.5609 16.1814 7.29107 15.9564 7.97266L15.8499 8.26074C15.5346 9.02208 14.9999 9.67302 14.3148 10.1309C13.6296 10.5886 12.8243 10.8329 12.0003 10.833C10.9644 10.833 9.96774 10.4478 9.20343 9.75586L9.05402 9.61328C8.27269 8.83196 7.8334 7.77194 7.83331 6.66699C7.83331 5.8429 8.07762 5.03677 8.53546 4.35156C8.93608 3.75204 9.48444 3.26815 10.1253 2.94531L10.4056 2.81738ZM12.0003 2.83301C11.0471 2.83301 10.1303 3.1884 9.42706 3.8252L9.28937 3.95605C8.57048 4.67494 8.16632 5.65033 8.16632 6.66699C8.16638 7.33026 8.33922 7.98026 8.66437 8.55469L8.81281 8.7959C9.18141 9.34756 9.686 9.79281 10.2757 10.0898L10.5335 10.208C11.2337 10.498 12.0041 10.5745 12.7474 10.4268C13.491 10.2788 14.1742 9.91305 14.7103 9.37695C15.1793 8.90791 15.5174 8.32657 15.6937 7.69043L15.7601 7.41406C15.9078 6.67075 15.8313 5.90039 15.5413 5.2002C15.2512 4.49975 14.7596 3.9007 14.1292 3.47949C13.499 3.05845 12.7583 2.83307 12.0003 2.83301Z" fill="#F3FAFF" stroke="#217AC0"/>
<path d="M12.0032 13.1691C13.4909 13.1691 14.963 13.4725 16.3294 14.0607C17.6936 14.6481 18.9242 15.5069 19.9456 16.5851V16.5861C20.0531 16.7027 20.1244 16.8463 20.1526 17.0002L20.1663 17.1564V20.6672C20.1662 20.8603 20.0992 21.0464 19.9778 21.1945L19.9222 21.256C19.7659 21.4122 19.5542 21.5002 19.3333 21.5002H4.66632C4.47325 21.5001 4.28711 21.4329 4.13898 21.3117L4.07745 21.256C3.92128 21.0999 3.83343 20.888 3.83331 20.6672V17.1594C3.83299 16.9481 3.91198 16.7436 4.05597 16.5891L4.05695 16.59C5.07922 15.5097 6.31094 14.6489 7.67706 14.0607C9.04341 13.4725 10.5156 13.1691 12.0032 13.1691ZM19.8333 16.9533L19.6956 16.8088C18.7042 15.7649 17.5107 14.9335 16.1878 14.3654C14.8649 13.7973 13.4401 13.5041 12.0003 13.5041C10.7404 13.5041 9.49158 13.7285 8.31281 14.1652L7.81183 14.3654C6.48898 14.9335 5.29544 15.7649 4.30402 16.8088L4.16632 16.9533V21.1672H19.8333V16.9533Z" fill="#F3FAFF" stroke="#217AC0"/>
</svg>
